<mxfile host="65bd71144e">
    <diagram id="VKDYFdwZNqEjUEqk-OcS" name="Page-1">
        <mxGraphModel dx="1017" dy="773" grid="1" gridSize="10" guides="1" tooltips="1" connect="1" arrows="1" fold="1" page="1" pageScale="1" pageWidth="850" pageHeight="1100" background="none" math="0" shadow="0">
            <root>
                <mxCell id="0"/>
                <mxCell id="1" parent="0"/>
                <mxCell id="2" value="" style="rounded=0;orthogonalLoop=1;jettySize=auto;exitX=0;exitY=1;exitDx=0;exitDy=0;entryX=0.5;entryY=0;entryDx=0;entryDy=0;endArrow=none;endFill=0;strokeColor=#fdfcfc;labelBackgroundColor=none;fontStyle=1;labelPosition=center;verticalLabelPosition=middle;align=center;verticalAlign=middle;html=1;horizontal=1;labelBorderColor=none;spacing=-1;jumpStyle=none;shadow=0;sketch=0;" parent="1" source="4" target="14" edge="1">
                    <mxGeometry relative="1" as="geometry"/>
                </mxCell>
                <mxCell id="3" value="" style="rounded=0;orthogonalLoop=1;jettySize=auto;html=1;exitX=1;exitY=1;exitDx=0;exitDy=0;entryX=0.5;entryY=0;entryDx=0;entryDy=0;endArrow=none;endFill=0;strokeColor=#fdfcfc;labelBackgroundColor=none;" parent="1" source="4" target="6" edge="1">
                    <mxGeometry relative="1" as="geometry"/>
                </mxCell>
                <mxCell id="4" value="d" style="ellipse;whiteSpace=wrap;html=1;aspect=fixed;sketch=0;" parent="1" vertex="1">
                    <mxGeometry x="339" y="210" width="22" height="22" as="geometry"/>
                </mxCell>
                <mxCell id="5" style="edgeStyle=none;rounded=0;orthogonalLoop=1;jettySize=auto;html=1;exitX=1;exitY=0.5;exitDx=0;exitDy=0;entryX=0;entryY=0.5;entryDx=0;entryDy=0;endArrow=none;endFill=0;strokeColor=#fdfcfc;sketch=0;" parent="1" source="6" target="7" edge="1">
                    <mxGeometry relative="1" as="geometry"/>
                </mxCell>
                <mxCell id="6" value="AdminUser" style="whiteSpace=wrap;html=1;align=center;sketch=0;glass=0;" parent="1" vertex="1">
                    <mxGeometry x="361" y="250" width="100" height="40" as="geometry"/>
                </mxCell>
                <mxCell id="7" value="Position" style="ellipse;whiteSpace=wrap;html=1;align=center;sketch=0;" parent="1" vertex="1">
                    <mxGeometry x="500" y="250" width="100" height="40" as="geometry"/>
                </mxCell>
                <mxCell id="8" style="edgeStyle=orthogonalEdgeStyle;rounded=0;orthogonalLoop=1;jettySize=auto;html=1;exitX=0.5;exitY=1;exitDx=0;exitDy=0;entryX=0.5;entryY=0;entryDx=0;entryDy=0;endArrow=none;endFill=0;strokeColor=#fdfcfc;" parent="1" source="9" target="4" edge="1">
                    <mxGeometry relative="1" as="geometry"/>
                </mxCell>
                <mxCell id="9" value="User" style="whiteSpace=wrap;html=1;align=center;sketch=0;" parent="1" vertex="1">
                    <mxGeometry x="300" y="150" width="100" height="40" as="geometry"/>
                </mxCell>
                <mxCell id="12" value="1" style="edgeStyle=none;rounded=0;sketch=0;jumpStyle=none;orthogonalLoop=1;jettySize=auto;html=1;exitX=0.5;exitY=1;exitDx=0;exitDy=0;entryX=0.5;entryY=0;entryDx=0;entryDy=0;shadow=0;labelBackgroundColor=none;endArrow=none;endFill=0;strokeColor=#fdfcfc;verticalAlign=top;labelPosition=left;verticalLabelPosition=bottom;align=right;spacing=0;" parent="1" source="14" target="50" edge="1">
                    <mxGeometry relative="1" as="geometry"/>
                </mxCell>
                <mxCell id="14" value="RegularUser" style="whiteSpace=wrap;html=1;align=center;sketch=0;" parent="1" vertex="1">
                    <mxGeometry x="239" y="250" width="100" height="40" as="geometry"/>
                </mxCell>
                <mxCell id="15" value="" style="shape=requiredInterface;html=1;verticalLabelPosition=bottom;glass=0;sketch=0;strokeWidth=2;direction=south;rotation=65;" parent="1" vertex="1">
                    <mxGeometry x="312" y="232" width="12" height="15" as="geometry"/>
                </mxCell>
                <mxCell id="16" value="" style="shape=requiredInterface;html=1;verticalLabelPosition=bottom;glass=0;sketch=0;strokeWidth=2;direction=south;rotation=286;flipH=1;flipV=0;" parent="1" vertex="1">
                    <mxGeometry x="378" y="232" width="12" height="15" as="geometry"/>
                </mxCell>
                <mxCell id="17" style="edgeStyle=none;rounded=0;sketch=0;jumpStyle=none;orthogonalLoop=1;jettySize=auto;html=1;exitX=0.5;exitY=1;exitDx=0;exitDy=0;entryX=0.5;entryY=0;entryDx=0;entryDy=0;shadow=0;labelBackgroundColor=none;endArrow=none;endFill=0;strokeColor=#fdfcfc;" parent="1" source="18" target="9" edge="1">
                    <mxGeometry relative="1" as="geometry"/>
                </mxCell>
                <mxCell id="18" value="Username" style="ellipse;whiteSpace=wrap;html=1;align=center;fontStyle=4;glass=0;sketch=0;strokeWidth=1;" parent="1" vertex="1">
                    <mxGeometry x="300" y="80" width="100" height="40" as="geometry"/>
                </mxCell>
                <mxCell id="19" style="edgeStyle=none;rounded=0;sketch=0;jumpStyle=none;orthogonalLoop=1;jettySize=auto;html=1;exitX=0;exitY=1;exitDx=0;exitDy=0;shadow=0;labelBackgroundColor=none;endArrow=none;endFill=0;strokeColor=#fdfcfc;" parent="1" source="20" edge="1">
                    <mxGeometry relative="1" as="geometry">
                        <mxPoint x="350" y="150" as="targetPoint"/>
                    </mxGeometry>
                </mxCell>
                <mxCell id="20" value="Password" style="ellipse;whiteSpace=wrap;html=1;align=center;glass=0;sketch=0;strokeWidth=1;" parent="1" vertex="1">
                    <mxGeometry x="440" y="80" width="100" height="40" as="geometry"/>
                </mxCell>
                <mxCell id="21" style="edgeStyle=none;rounded=0;sketch=0;jumpStyle=none;orthogonalLoop=1;jettySize=auto;html=1;exitX=0;exitY=0.5;exitDx=0;exitDy=0;shadow=0;labelBackgroundColor=none;endArrow=none;endFill=0;strokeColor=#fdfcfc;" parent="1" source="22" target="9" edge="1">
                    <mxGeometry relative="1" as="geometry"/>
                </mxCell>
                <mxCell id="22" value="Name" style="ellipse;whiteSpace=wrap;html=1;align=center;glass=0;sketch=0;strokeWidth=1;" parent="1" vertex="1">
                    <mxGeometry x="440" y="150" width="100" height="40" as="geometry"/>
                </mxCell>
                <mxCell id="23" style="edgeStyle=none;rounded=0;sketch=0;jumpStyle=none;orthogonalLoop=1;jettySize=auto;html=1;exitX=0;exitY=0.5;exitDx=0;exitDy=0;entryX=1;entryY=0.5;entryDx=0;entryDy=0;shadow=0;labelBackgroundColor=none;endArrow=none;endFill=0;strokeColor=#fdfcfc;" parent="1" source="24" target="22" edge="1">
                    <mxGeometry relative="1" as="geometry"/>
                </mxCell>
                <mxCell id="24" value="FirstName" style="ellipse;whiteSpace=wrap;html=1;align=center;glass=0;sketch=0;strokeWidth=1;" parent="1" vertex="1">
                    <mxGeometry x="570" y="110" width="100" height="40" as="geometry"/>
                </mxCell>
                <mxCell id="25" style="edgeStyle=none;rounded=0;sketch=0;jumpStyle=none;orthogonalLoop=1;jettySize=auto;html=1;exitX=0;exitY=0.5;exitDx=0;exitDy=0;shadow=0;labelBackgroundColor=none;endArrow=none;endFill=0;strokeColor=#fdfcfc;" parent="1" source="26" edge="1">
                    <mxGeometry relative="1" as="geometry">
                        <mxPoint x="540" y="170" as="targetPoint"/>
                    </mxGeometry>
                </mxCell>
                <mxCell id="26" value="LastName" style="ellipse;whiteSpace=wrap;html=1;align=center;glass=0;sketch=0;strokeWidth=1;" parent="1" vertex="1">
                    <mxGeometry x="570" y="170" width="100" height="40" as="geometry"/>
                </mxCell>
                <mxCell id="28" value="Returnable" style="ellipse;whiteSpace=wrap;html=1;align=center;glass=0;sketch=0;strokeWidth=1;" parent="1" vertex="1">
                    <mxGeometry x="239" y="613" width="100" height="40" as="geometry"/>
                </mxCell>
                <mxCell id="31" value="Condition" style="ellipse;whiteSpace=wrap;html=1;align=center;glass=0;sketch=0;strokeWidth=1;" parent="1" vertex="1">
                    <mxGeometry x="150" y="540" width="100" height="40" as="geometry"/>
                </mxCell>
                <mxCell id="33" value="Category" style="ellipse;whiteSpace=wrap;html=1;align=center;glass=0;sketch=0;strokeWidth=1;" parent="1" vertex="1">
                    <mxGeometry x="523" y="733" width="100" height="40" as="geometry"/>
                </mxCell>
                <mxCell id="35" value="Description" style="ellipse;whiteSpace=wrap;html=1;align=center;glass=0;sketch=0;strokeWidth=1;" parent="1" vertex="1">
                    <mxGeometry x="560" y="660" width="100" height="40" as="geometry"/>
                </mxCell>
                <mxCell id="46" style="edgeStyle=none;rounded=0;sketch=0;jumpStyle=none;orthogonalLoop=1;jettySize=auto;html=1;exitX=0;exitY=0.75;exitDx=0;exitDy=0;entryX=0;entryY=0.5;entryDx=0;entryDy=0;shadow=0;labelBackgroundColor=none;endArrow=none;endFill=0;strokeColor=#fdfcfc;" parent="1" source="47" target="58" edge="1">
                    <mxGeometry relative="1" as="geometry"/>
                </mxCell>
                <mxCell id="47" value="Item" style="whiteSpace=wrap;html=1;align=center;glass=0;sketch=0;strokeWidth=1;" parent="1" vertex="1">
                    <mxGeometry x="324" y="410" width="100" height="40" as="geometry"/>
                </mxCell>
                <mxCell id="48" value="N" style="edgeStyle=none;rounded=0;sketch=0;jumpStyle=none;orthogonalLoop=1;jettySize=auto;html=1;exitX=0.5;exitY=1;exitDx=0;exitDy=0;entryX=0.5;entryY=0;entryDx=0;entryDy=0;shadow=0;labelBackgroundColor=none;endArrow=none;endFill=0;strokeColor=#fdfcfc;verticalAlign=bottom;" parent="1" source="50" target="47" edge="1">
                    <mxGeometry relative="1" as="geometry"/>
                </mxCell>
                <mxCell id="50" value="list" style="shape=rhombus;perimeter=rhombusPerimeter;whiteSpace=wrap;html=1;align=center;glass=0;sketch=0;strokeWidth=1;" parent="1" vertex="1">
                    <mxGeometry x="295" y="320" width="66" height="60" as="geometry"/>
                </mxCell>
                <mxCell id="58" value="ItemID" style="ellipse;whiteSpace=wrap;html=1;align=center;fontStyle=4;glass=0;sketch=0;strokeWidth=1;" parent="1" vertex="1">
                    <mxGeometry x="30" y="510" width="100" height="40" as="geometry"/>
                </mxCell>
                <mxCell id="66" value="ItemName" style="ellipse;whiteSpace=wrap;html=1;align=center;glass=0;sketch=0;strokeWidth=1;" parent="1" vertex="1">
                    <mxGeometry x="490" y="803" width="100" height="40" as="geometry"/>
                </mxCell>
                <mxCell id="67" value="bid" style="shape=rhombus;perimeter=rhombusPerimeter;whiteSpace=wrap;html=1;align=center;glass=0;sketch=0;strokeWidth=1;" vertex="1" parent="1">
                    <mxGeometry x="170" y="330" width="66" height="60" as="geometry"/>
                </mxCell>
                <mxCell id="69" style="edgeStyle=none;rounded=0;sketch=0;jumpStyle=none;orthogonalLoop=1;jettySize=auto;html=1;exitX=1;exitY=0.5;exitDx=0;exitDy=0;entryX=0;entryY=0.5;entryDx=0;entryDy=0;shadow=0;labelBackgroundColor=none;endArrow=none;endFill=0;strokeColor=#fdfcfc;" edge="1" parent="1" source="47" target="35">
                    <mxGeometry relative="1" as="geometry">
                        <mxPoint x="434" y="440" as="sourcePoint"/>
                        <mxPoint x="480" y="460" as="targetPoint"/>
                    </mxGeometry>
                </mxCell>
                <mxCell id="70" style="edgeStyle=none;rounded=0;sketch=0;jumpStyle=none;orthogonalLoop=1;jettySize=auto;html=1;exitX=1;exitY=0.75;exitDx=0;exitDy=0;entryX=0;entryY=0.5;entryDx=0;entryDy=0;shadow=0;labelBackgroundColor=none;endArrow=none;endFill=0;strokeColor=#fdfcfc;" edge="1" parent="1" source="47" target="33">
                    <mxGeometry relative="1" as="geometry">
                        <mxPoint x="405" y="490" as="sourcePoint"/>
                        <mxPoint x="451" y="590" as="targetPoint"/>
                    </mxGeometry>
                </mxCell>
                <mxCell id="71" style="edgeStyle=none;rounded=0;sketch=0;jumpStyle=none;orthogonalLoop=1;jettySize=auto;html=1;entryX=0;entryY=0.5;entryDx=0;entryDy=0;shadow=0;labelBackgroundColor=none;endArrow=none;endFill=0;strokeColor=#fdfcfc;" edge="1" parent="1" target="66">
                    <mxGeometry relative="1" as="geometry">
                        <mxPoint x="420" y="450" as="sourcePoint"/>
                        <mxPoint x="480" y="610" as="targetPoint"/>
                    </mxGeometry>
                </mxCell>
                <mxCell id="72" value="PriceInfo" style="ellipse;whiteSpace=wrap;html=1;align=center;glass=0;sketch=0;strokeWidth=1;" vertex="1" parent="1">
                    <mxGeometry x="468" y="933" width="100" height="40" as="geometry"/>
                </mxCell>
                <mxCell id="73" value="StartBid" style="ellipse;whiteSpace=wrap;html=1;align=center;glass=0;sketch=0;strokeWidth=1;" vertex="1" parent="1">
                    <mxGeometry x="648" y="773" width="100" height="40" as="geometry"/>
                </mxCell>
                <mxCell id="74" value="MinSalePrice" style="ellipse;whiteSpace=wrap;html=1;align=center;glass=0;sketch=0;strokeWidth=1;" vertex="1" parent="1">
                    <mxGeometry x="648" y="843" width="100" height="40" as="geometry"/>
                </mxCell>
                <mxCell id="75" value="AuctionLength" style="ellipse;whiteSpace=wrap;html=1;align=center;glass=0;sketch=0;strokeWidth=1;" vertex="1" parent="1">
                    <mxGeometry x="648" y="903" width="100" height="40" as="geometry"/>
                </mxCell>
                <mxCell id="76" value="GetItNowPrice" style="ellipse;whiteSpace=wrap;html=1;align=center;glass=0;sketch=0;strokeWidth=1;" vertex="1" parent="1">
                    <mxGeometry x="648" y="963" width="100" height="40" as="geometry"/>
                </mxCell>
                <mxCell id="78" style="edgeStyle=none;rounded=0;sketch=0;jumpStyle=none;orthogonalLoop=1;jettySize=auto;html=1;exitX=0.98;exitY=0.3;exitDx=0;exitDy=0;entryX=0;entryY=0.5;entryDx=0;entryDy=0;shadow=0;labelBackgroundColor=none;endArrow=none;endFill=0;strokeColor=#fdfcfc;exitPerimeter=0;" edge="1" parent="1" source="72" target="73">
                    <mxGeometry relative="1" as="geometry">
                        <mxPoint x="432" y="653" as="sourcePoint"/>
                        <mxPoint x="478" y="673" as="targetPoint"/>
                    </mxGeometry>
                </mxCell>
                <mxCell id="79" style="edgeStyle=none;rounded=0;sketch=0;jumpStyle=none;orthogonalLoop=1;jettySize=auto;html=1;exitX=1;exitY=0.5;exitDx=0;exitDy=0;entryX=0;entryY=0.5;entryDx=0;entryDy=0;shadow=0;labelBackgroundColor=none;endArrow=none;endFill=0;strokeColor=#fdfcfc;" edge="1" parent="1" source="72" target="74">
                    <mxGeometry relative="1" as="geometry">
                        <mxPoint x="576" y="955" as="sourcePoint"/>
                        <mxPoint x="658" y="803" as="targetPoint"/>
                    </mxGeometry>
                </mxCell>
                <mxCell id="80" style="edgeStyle=none;rounded=0;sketch=0;jumpStyle=none;orthogonalLoop=1;jettySize=auto;html=1;exitX=1;exitY=0.5;exitDx=0;exitDy=0;entryX=0;entryY=0.5;entryDx=0;entryDy=0;shadow=0;labelBackgroundColor=none;endArrow=none;endFill=0;strokeColor=#fdfcfc;" edge="1" parent="1" source="72" target="75">
                    <mxGeometry relative="1" as="geometry">
                        <mxPoint x="578" y="963" as="sourcePoint"/>
                        <mxPoint x="658" y="873" as="targetPoint"/>
                    </mxGeometry>
                </mxCell>
                <mxCell id="81" style="edgeStyle=none;rounded=0;sketch=0;jumpStyle=none;orthogonalLoop=1;jettySize=auto;html=1;exitX=1;exitY=0.5;exitDx=0;exitDy=0;entryX=0;entryY=0.5;entryDx=0;entryDy=0;shadow=0;labelBackgroundColor=none;endArrow=none;endFill=0;strokeColor=#fdfcfc;" edge="1" parent="1" source="72" target="76">
                    <mxGeometry relative="1" as="geometry">
                        <mxPoint x="578" y="963" as="sourcePoint"/>
                        <mxPoint x="658" y="933" as="targetPoint"/>
                    </mxGeometry>
                </mxCell>
                <mxCell id="82" style="edgeStyle=none;rounded=0;sketch=0;jumpStyle=none;orthogonalLoop=1;jettySize=auto;html=1;entryX=0;entryY=0.5;entryDx=0;entryDy=0;shadow=0;labelBackgroundColor=none;endArrow=none;endFill=0;strokeColor=#fdfcfc;exitX=0.93;exitY=1.025;exitDx=0;exitDy=0;exitPerimeter=0;" edge="1" parent="1" source="47" target="72">
                    <mxGeometry relative="1" as="geometry">
                        <mxPoint x="430" y="460" as="sourcePoint"/>
                        <mxPoint x="480" y="680" as="targetPoint"/>
                    </mxGeometry>
                </mxCell>
                <mxCell id="83" style="edgeStyle=none;rounded=0;sketch=0;jumpStyle=none;orthogonalLoop=1;jettySize=auto;html=1;exitX=0.5;exitY=1;exitDx=0;exitDy=0;entryX=0;entryY=0.5;entryDx=0;entryDy=0;shadow=0;labelBackgroundColor=none;endArrow=none;endFill=0;strokeColor=#fdfcfc;" edge="1" parent="1" source="47" target="28">
                    <mxGeometry relative="1" as="geometry">
                        <mxPoint x="434" y="440" as="sourcePoint"/>
                        <mxPoint x="480" y="460" as="targetPoint"/>
                    </mxGeometry>
                </mxCell>
                <mxCell id="84" style="edgeStyle=none;rounded=0;sketch=0;jumpStyle=none;orthogonalLoop=1;jettySize=auto;html=1;exitX=0.25;exitY=1;exitDx=0;exitDy=0;entryX=0.5;entryY=0;entryDx=0;entryDy=0;shadow=0;labelBackgroundColor=none;endArrow=none;endFill=0;strokeColor=#fdfcfc;" edge="1" parent="1" source="47" target="31">
                    <mxGeometry relative="1" as="geometry">
                        <mxPoint x="434" y="430" as="sourcePoint"/>
                        <mxPoint x="570" y="340" as="targetPoint"/>
                    </mxGeometry>
                </mxCell>
                <mxCell id="86" value="N" style="edgeStyle=none;rounded=0;sketch=0;jumpStyle=none;orthogonalLoop=1;jettySize=auto;html=1;exitX=0.5;exitY=1;exitDx=0;exitDy=0;entryX=0;entryY=0;entryDx=0;entryDy=0;shadow=0;labelBackgroundColor=none;endArrow=none;endFill=0;strokeColor=#fdfcfc;verticalAlign=bottom;" edge="1" parent="1" source="67" target="47">
                    <mxGeometry relative="1" as="geometry">
                        <mxPoint x="338" y="390" as="sourcePoint"/>
                        <mxPoint x="384" y="420" as="targetPoint"/>
                    </mxGeometry>
                </mxCell>
                <mxCell id="87" value="M" style="edgeStyle=none;rounded=0;sketch=0;jumpStyle=none;orthogonalLoop=1;jettySize=auto;html=1;exitX=0.5;exitY=1;exitDx=0;exitDy=0;entryX=0.5;entryY=0;entryDx=0;entryDy=0;shadow=0;labelBackgroundColor=none;endArrow=none;endFill=0;strokeColor=#fdfcfc;verticalAlign=top;labelPosition=left;verticalLabelPosition=bottom;align=right;spacing=0;" edge="1" parent="1" source="14" target="67">
                    <mxGeometry relative="1" as="geometry">
                        <mxPoint x="299" y="300" as="sourcePoint"/>
                        <mxPoint x="338" y="330" as="targetPoint"/>
                    </mxGeometry>
                </mxCell>
                <mxCell id="88" value="cancel" style="shape=rhombus;perimeter=rhombusPerimeter;whiteSpace=wrap;html=1;align=center;glass=0;sketch=0;strokeWidth=1;" vertex="1" parent="1">
                    <mxGeometry x="441" y="320" width="66" height="60" as="geometry"/>
                </mxCell>
                <mxCell id="89" value="1" style="edgeStyle=none;rounded=0;sketch=0;jumpStyle=none;orthogonalLoop=1;jettySize=auto;html=1;exitX=1;exitY=1;exitDx=0;exitDy=0;entryX=0.5;entryY=0;entryDx=0;entryDy=0;shadow=0;labelBackgroundColor=none;endArrow=none;endFill=0;strokeColor=#fdfcfc;verticalAlign=top;labelPosition=left;verticalLabelPosition=bottom;align=right;spacing=0;" edge="1" parent="1" source="6" target="88">
                    <mxGeometry relative="1" as="geometry">
                        <mxPoint x="299" y="300" as="sourcePoint"/>
                        <mxPoint x="338" y="330" as="targetPoint"/>
                    </mxGeometry>
                </mxCell>
                <mxCell id="90" value="N" style="edgeStyle=none;rounded=0;sketch=0;jumpStyle=none;orthogonalLoop=1;jettySize=auto;html=1;exitX=0.5;exitY=1;exitDx=0;exitDy=0;shadow=0;labelBackgroundColor=none;endArrow=none;endFill=0;strokeColor=#fdfcfc;verticalAlign=bottom;" edge="1" parent="1" source="88">
                    <mxGeometry relative="1" as="geometry">
                        <mxPoint x="338" y="390" as="sourcePoint"/>
                        <mxPoint x="420" y="410" as="targetPoint"/>
                    </mxGeometry>
                </mxCell>
                <mxCell id="91" value="Rating" style="whiteSpace=wrap;html=1;align=center;glass=0;sketch=0;strokeWidth=1;" vertex="1" parent="1">
                    <mxGeometry x="710" y="420" width="100" height="40" as="geometry"/>
                </mxCell>
                <mxCell id="92" value="has" style="shape=rhombus;perimeter=rhombusPerimeter;whiteSpace=wrap;html=1;align=center;glass=0;sketch=0;strokeWidth=1;" vertex="1" parent="1">
                    <mxGeometry x="550" y="400" width="66" height="60" as="geometry"/>
                </mxCell>
                <mxCell id="93" value="1" style="edgeStyle=none;rounded=0;sketch=0;jumpStyle=none;orthogonalLoop=1;jettySize=auto;html=1;exitX=1;exitY=0.25;exitDx=0;exitDy=0;entryX=0;entryY=0.5;entryDx=0;entryDy=0;shadow=0;labelBackgroundColor=none;endArrow=none;endFill=0;strokeColor=#fdfcfc;verticalAlign=top;labelPosition=left;verticalLabelPosition=bottom;align=right;spacing=0;" edge="1" parent="1" source="47" target="92">
                    <mxGeometry relative="1" as="geometry">
                        <mxPoint x="471" y="300" as="sourcePoint"/>
                        <mxPoint x="583" y="330" as="targetPoint"/>
                    </mxGeometry>
                </mxCell>
                <mxCell id="94" value="N" style="edgeStyle=none;rounded=0;sketch=0;jumpStyle=none;orthogonalLoop=1;jettySize=auto;html=1;exitX=0;exitY=0.5;exitDx=0;exitDy=0;shadow=0;labelBackgroundColor=none;endArrow=none;endFill=0;strokeColor=#fdfcfc;verticalAlign=bottom;" edge="1" parent="1" source="91">
                    <mxGeometry relative="1" as="geometry">
                        <mxPoint x="583" y="390" as="sourcePoint"/>
                        <mxPoint x="620" y="430" as="targetPoint"/>
                    </mxGeometry>
                </mxCell>
                <mxCell id="95" value="Star" style="ellipse;whiteSpace=wrap;html=1;align=center;glass=0;sketch=0;strokeWidth=1;" vertex="1" parent="1">
                    <mxGeometry x="640" y="310" width="100" height="40" as="geometry"/>
                </mxCell>
                <mxCell id="96" value="DateTime" style="ellipse;whiteSpace=wrap;html=1;align=center;glass=0;sketch=0;strokeWidth=1;" vertex="1" parent="1">
                    <mxGeometry x="760" y="270" width="100" height="40" as="geometry"/>
                </mxCell>
                <mxCell id="97" value="Comment" style="ellipse;whiteSpace=wrap;html=1;align=center;glass=0;sketch=0;strokeWidth=1;" vertex="1" parent="1">
                    <mxGeometry x="820" y="350" width="100" height="40" as="geometry"/>
                </mxCell>
                <mxCell id="98" style="edgeStyle=none;rounded=0;sketch=0;jumpStyle=none;orthogonalLoop=1;jettySize=auto;html=1;exitX=0.5;exitY=1;exitDx=0;exitDy=0;entryX=0.5;entryY=0;entryDx=0;entryDy=0;shadow=0;labelBackgroundColor=none;endArrow=none;endFill=0;strokeColor=#fdfcfc;" edge="1" parent="1" source="95" target="91">
                    <mxGeometry relative="1" as="geometry">
                        <mxPoint x="580" y="140" as="sourcePoint"/>
                        <mxPoint x="550" y="180" as="targetPoint"/>
                    </mxGeometry>
                </mxCell>
                <mxCell id="99" style="edgeStyle=none;rounded=0;sketch=0;jumpStyle=none;orthogonalLoop=1;jettySize=auto;html=1;exitX=0.5;exitY=1;exitDx=0;exitDy=0;entryX=0.5;entryY=0;entryDx=0;entryDy=0;shadow=0;labelBackgroundColor=none;endArrow=none;endFill=0;strokeColor=#fdfcfc;" edge="1" parent="1" source="96" target="91">
                    <mxGeometry relative="1" as="geometry">
                        <mxPoint x="700" y="360" as="sourcePoint"/>
                        <mxPoint x="770" y="430" as="targetPoint"/>
                    </mxGeometry>
                </mxCell>
                <mxCell id="100" style="edgeStyle=none;rounded=0;sketch=0;jumpStyle=none;orthogonalLoop=1;jettySize=auto;html=1;exitX=0.5;exitY=1;exitDx=0;exitDy=0;entryX=0.5;entryY=0;entryDx=0;entryDy=0;shadow=0;labelBackgroundColor=none;endArrow=none;endFill=0;strokeColor=#fdfcfc;" edge="1" parent="1" source="97" target="91">
                    <mxGeometry relative="1" as="geometry">
                        <mxPoint x="820" y="320" as="sourcePoint"/>
                        <mxPoint x="770" y="430" as="targetPoint"/>
                    </mxGeometry>
                </mxCell>
                <mxCell id="101" value="delete" style="shape=rhombus;perimeter=rhombusPerimeter;whiteSpace=wrap;html=1;align=center;glass=0;sketch=0;strokeWidth=1;" vertex="1" parent="1">
                    <mxGeometry x="540" y="320" width="66" height="60" as="geometry"/>
                </mxCell>
                <mxCell id="102" value="1" style="edgeStyle=none;rounded=0;sketch=0;jumpStyle=none;orthogonalLoop=1;jettySize=auto;html=1;exitX=1;exitY=1;exitDx=0;exitDy=0;entryX=0.5;entryY=0;entryDx=0;entryDy=0;shadow=0;labelBackgroundColor=none;endArrow=none;endFill=0;strokeColor=#fdfcfc;verticalAlign=top;labelPosition=left;verticalLabelPosition=bottom;align=right;spacing=0;" edge="1" parent="1" source="6" target="101">
                    <mxGeometry relative="1" as="geometry">
                        <mxPoint x="471" y="300" as="sourcePoint"/>
                        <mxPoint x="484" y="330" as="targetPoint"/>
                    </mxGeometry>
                </mxCell>
                <mxCell id="103" value="N" style="edgeStyle=none;rounded=0;sketch=0;jumpStyle=none;orthogonalLoop=1;jettySize=auto;html=1;exitX=0;exitY=0;exitDx=0;exitDy=0;shadow=0;labelBackgroundColor=none;endArrow=none;endFill=0;strokeColor=#fdfcfc;verticalAlign=bottom;entryX=0.5;entryY=1;entryDx=0;entryDy=0;" edge="1" parent="1" source="91" target="101">
                    <mxGeometry relative="1" as="geometry">
                        <mxPoint x="720" y="450" as="sourcePoint"/>
                        <mxPoint x="630" y="440" as="targetPoint"/>
                    </mxGeometry>
                </mxCell>
            </root>
        </mxGraphModel>
    </diagram>
</mxfile>